# Blender 4.5.3 LTS
# www.blender.org
o scene
v -1.000000 0.003796 0.650000
v 1.000000 0.003796 0.650000
v -0.600000 -0.580143 0.806419
v 0.600000 -0.580143 0.806419
v -0.600000 0.601627 1.014796
v 0.600000 0.601627 1.014796
v -1.000000 0.003796 -0.000000
v -0.000000 0.003796 0.650000
v -0.600000 0.010742 0.910607
v -0.000000 -0.580143 0.806419
v 0.600000 0.010742 0.910607
v -0.000000 0.601627 1.014796
v 0.000000 0.003796 -0.000000
v 0.000000 0.010742 0.910607
v -1.000000 0.003796 -0.650000
v 1.000000 0.003796 -0.650000
v -0.600000 -0.580143 -0.806419
v 0.600000 -0.580143 -0.806419
v -0.600000 0.601627 -1.014796
v 0.600000 0.601627 -1.014796
v 1.000000 0.003796 0.000000
v -0.000000 0.003796 -0.650000
v -0.600000 0.010742 -0.910607
v -0.000000 -0.580143 -0.806419
v 0.600000 0.010742 -0.910607
v -0.000000 0.601627 -1.014796
v 0.000000 0.010742 -0.910607
vn -0.0000 1.0000 -0.0000
vn -0.0000 0.1736 -0.9848
vn -0.0000 0.1736 0.9848
vt 0.154589 0.516908
vt 0.309179 0.516908
vt 0.309179 0.618357
vt 0.154589 0.618357
vt 0.000000 0.516908
vt 0.000000 0.618357
vt 0.000000 0.512077
vt 0.236715 0.512077
vt 0.236715 0.753623
vt 0.000000 0.753623
vt 0.483092 0.512077
vt 0.483092 0.753623
vt 0.483092 1.000000
vt 0.236715 1.000000
vt 0.000000 1.000000
vt 0.154589 0.410628
vt 0.154589 0.309179
vt 0.309179 0.309179
vt 0.309179 0.410628
vt 0.000000 0.410628
vt 0.000000 0.309179
vt 1.000000 -0.115942
vt 1.000000 0.193237
vt 0.690821 0.193237
vt 0.690821 -0.115942
vt 0.381643 0.193237
vt 0.381643 -0.115942
vt 0.690821 0.502415
vt 0.381643 0.502415
vt 1.000000 0.502415
s 1
f 13/1/1 8/4/1 2/3/1 21/2/1
f 7/5/1 1/6/1 8/4/1 13/1/1
f 3/7/2 9/10/2 14/9/2 10/8/2
f 10/8/2 14/9/2 11/12/2 4/11/2
f 14/9/2 12/14/2 6/13/2 11/12/2
f 9/10/2 5/15/2 12/14/2 14/9/2
f 13/16/1 21/19/1 16/18/1 22/17/1
f 7/20/1 13/16/1 22/17/1 15/21/1
f 17/22/3 24/25/3 27/24/3 23/23/3
f 24/25/3 18/27/3 25/26/3 27/24/3
f 27/24/3 25/26/3 20/29/3 26/28/3
f 23/23/3 27/24/3 26/28/3 19/30/3
